<svg id="Layer_1" data-name="Layer 1" xmlns="http://www.w3.org/2000/svg" viewBox="0 0 864 220"><defs><style>.cls-1{fill:#0075c9;}.cls-2{fill:#10cfc9;}.cls-3{fill:#009ade;}</style></defs><path class="cls-1" d="M500.45,142.11,466.11,73.22a9.63,9.63,0,0,0-17.11,0l-34.34,68.89a9.43,9.43,0,1,0,16.88,8.42l7.1-14.24h37.83l7.1,14.24a9.46,9.46,0,0,0,12.65,4.24h0A9.47,9.47,0,0,0,500.45,142.11Zm-52.86-23.77,10-20,10,20Z"/><path class="cls-1" d="M697.71,139.47l-28.53-29.91,23.82-25a9.75,9.75,0,0,0-.33-13.74,9.48,9.48,0,0,0-13.36.32L646.13,106V77.58A9.61,9.61,0,0,0,636.55,68h0A9.62,9.62,0,0,0,627,77.58v68.59a9.62,9.62,0,0,0,9.59,9.58h0a9.61,9.61,0,0,0,9.58-9.58v-13c1.4-1.33,9.81-9.7,9.81-9.7l27.9,29.25a9.49,9.49,0,0,0,13.38.31l.17-.16A9.49,9.49,0,0,0,697.71,139.47Z"/><ellipse class="cls-2" cx="594.69" cy="79.64" rx="11.61" ry="11.64"/><ellipse class="cls-3" cx="594.69" cy="111.88" rx="11.61" ry="11.64"/><ellipse class="cls-1" cx="594.69" cy="144.11" rx="11.61" ry="11.64"/><path class="cls-1" d="M561.56,68H507.65A9.66,9.66,0,0,0,498,77.63h0a9.66,9.66,0,0,0,9.63,9.64H525v58.85a9.64,9.64,0,0,0,19.27,0V87.27h17.32a9.66,9.66,0,0,0,9.63-9.64h0A9.66,9.66,0,0,0,561.56,68Z"/><path class="cls-1" d="M795.25,142.11,760.91,73.22a9.63,9.63,0,0,0-17.11,0l-34.34,68.89a9.47,9.47,0,0,0,4.23,12.66h0a9.46,9.46,0,0,0,12.65-4.24l7.1-14.24h37.83l7.1,14.24A9.46,9.46,0,0,0,791,154.77h0A9.47,9.47,0,0,0,795.25,142.11Zm-52.86-23.77,10-20,10,20Z"/><path class="cls-1" d="M400.73,77.22a8.55,8.55,0,0,0-3.52-7.47h0c-3.82-2.76-10.54-2.27-13.29,1.55l-27,37-27-37c-2.76-3.82-9.47-4.31-13.29-1.55a8.58,8.58,0,0,0-3.53,7.47c0,.15,0,69,0,69a9.55,9.55,0,1,0,19.1,0V106l17.58,24.39a8.59,8.59,0,0,0,7.08,3.54H357a8.62,8.62,0,0,0,7.08-3.54L381.66,106V146.2a9.55,9.55,0,1,0,19.09,0S400.74,77.37,400.73,77.22Z"/><path class="cls-1" d="M198.72,136.58H163.5v-59A9.61,9.61,0,0,0,153.92,68h0a9.62,9.62,0,0,0-9.59,9.58v68.59a9.62,9.62,0,0,0,9.59,9.58h44.8a9.46,9.46,0,0,0,9.43-9.43V146A9.46,9.46,0,0,0,198.72,136.58Z"/><path class="cls-1" d="M123.29,68H75a9,9,0,0,0-9,9,3,3,0,0,0,0,.31c0,.1,0,.2,0,.3v68.59a9.61,9.61,0,0,0,9.58,9.58h0a9.62,9.62,0,0,0,9.59-9.58v-25h25.1a9,9,0,0,0,0-18H85.23V86h38.06a9,9,0,0,0,0-18Z"/><path class="cls-1" d="M287.58,81.1a43.57,43.57,0,0,0-31-12.85l-1.72,0v0a44,44,0,0,0-42.15,43.82,43.88,43.88,0,1,0,74.89-31Zm-4.59,31A26.43,26.43,0,1,1,256.56,85.7,26.43,26.43,0,0,1,283,112.12Z"/><path class="cls-1" d="M779.93,73a9,9,0,0,1,1.19-4.49A9,9,0,0,1,797.94,73a9,9,0,0,1-1.16,4.43,9,9,0,0,1-15.69,0A9,9,0,0,1,779.93,73Zm1.25,0a7.74,7.74,0,0,0,11.62,6.7,7.66,7.66,0,0,0,2.83-2.82,7.48,7.48,0,0,0,1-3.88,7.76,7.76,0,0,0-7.75-7.75,7.43,7.43,0,0,0-3.86,1,7.76,7.76,0,0,0-2.84,2.82A7.52,7.52,0,0,0,781.18,73Zm11.41-2.18a2.88,2.88,0,0,1-.51,1.69,3.06,3.06,0,0,1-1.43,1.1l2.85,4.73h-2L789,74.11h-1.62v4.24h-1.77V67.68h3.12a4.49,4.49,0,0,1,2.92.78A2.89,2.89,0,0,1,792.59,70.83Zm-5.2,1.8h1.29a2.3,2.3,0,0,0,1.54-.49,1.58,1.58,0,0,0,.58-1.27,1.51,1.51,0,0,0-.51-1.28,2.74,2.74,0,0,0-1.63-.39h-1.27Z"/></svg>