<?xml version="1.0" encoding="utf-8"?>
<!-- Generator: Adobe Illustrator 23.0.4, SVG Export Plug-In . SVG Version: 6.00 Build 0)  -->
<svg version="1.1" id="Layer_1" xmlns="http://www.w3.org/2000/svg" xmlns:xlink="http://www.w3.org/1999/xlink" x="0px" y="0px"
	 viewBox="0 0 742.43 118.21" style="enable-background:new 0 0 742.43 118.21;" xml:space="preserve">
<style type="text/css">
	.st0{fill:#511C74;}
	.st1{fill:#361451;}
	.st2{fill:#1F90A6;}
	.st3{fill:#FFFFFF;stroke:#511C74;stroke-width:0.5;stroke-miterlimit:10;}
	.st4{fill:#FCFAED;}
	.st5{fill:#1F90A6;stroke:#1F90A6;stroke-miterlimit:10;}
	.st6{fill:#FCFAED;stroke:#FCFAED;stroke-miterlimit:10;}
	.st7{fill:url(#SVGID_1_);}
</style>
<g>
	<path class="st0" d="M281.35,20.5v3.61c5.77-4.33,10.25-5.92,16.6-5.92c18.19,0,32.91,15.3,32.91,34.35
		c0,18.91-14.58,34.21-32.91,34.21c-6.35,0-10.83-1.59-16.6-5.92v37.38h-18.47V20.5H281.35z M281.2,52.54
		c0,10.54,6.21,17.46,15.59,17.46c9.09,0,15.44-7.22,15.44-17.75c0-10.25-6.5-17.46-15.73-17.46
		C287.41,34.78,281.2,41.86,281.2,52.54z"/>
	<path class="st0" d="M386.86,84.43v-3.61c-5.77,4.33-10.25,5.92-16.6,5.92c-18.19,0-32.91-15.3-32.91-34.35
		c0-18.91,14.72-34.21,32.91-34.21c6.35,0,10.82,1.59,16.6,5.92V20.5h18.47v63.94H386.86z M355.97,52.68
		c0,10.25,6.49,17.46,15.73,17.46s15.44-7.22,15.44-17.9c0-10.54-6.21-17.46-15.73-17.46C362.18,34.78,355.97,42,355.97,52.68z"/>
	<path class="st0" d="M435.21,23.96c4.04-2.89,7.07-3.9,11.69-3.9c1.88,0,3.46,0.14,6.35,0.43v16.45c-3.46-0.29-4.62-0.29-6.35-0.29
		c-8.95,0-11.69,4.04-11.69,16.89v30.89h-18.47V20.5h18.47V23.96z"/>
	<path class="st0" d="M485.29,63.07c0,4.04,0.72,5.48,2.74,5.48s3.61-0.43,7.79-1.88v17.18c-4.04,1.44-6.93,1.88-10.54,1.88
		c-11.69,0-18.47-8.23-18.47-22.37V37.09h-6.5V20.5h6.5V7.22L485.29,0v20.5h9.67v16.6h-9.67V63.07z"/>
	<path class="st0" d="M524.98,23.53c4.76-3.9,8.8-5.34,14.58-5.34c9.09,0,17.75,4.91,22.08,12.56c2.74,4.76,4.04,10.82,4.04,19.2
		v34.5h-18.47V50.95c0-12.12-2.6-16.17-10.39-16.17c-4.33,0-8.23,1.88-9.81,4.76c-1.44,2.74-2.02,5.92-2.02,12.7v32.19h-18.47V20.5
		h18.47V23.53z"/>
	<path class="st0" d="M640.02,68.56c-7.51,12.27-17.46,18.19-30.31,18.19c-19.2,0-33.63-14.72-33.63-34.21
		c0-19.2,14.43-34.35,32.76-34.35c18.62,0,32.19,15.01,32.19,35.65c0,1.15,0,2.31-0.14,5.05h-45.9c2.45,7.79,7.07,11.55,14.58,11.55
		c6.21,0,10.83-2.74,14.29-8.23L640.02,68.56z M622.7,46.04c-2.6-8.08-6.93-11.69-13.86-11.69c-7.07,0-11.69,3.9-13.86,11.69H622.7z
		"/>
	<path class="st0" d="M669.75,23.96c4.04-2.89,7.07-3.9,11.69-3.9c1.88,0,3.46,0.14,6.35,0.43v16.45c-3.46-0.29-4.62-0.29-6.35-0.29
		c-8.95,0-11.69,4.04-11.69,16.89v30.89h-18.47V20.5h18.47V23.96z"/>
	<path class="st0" d="M706.27,61.34c3.32,6.64,6.21,9.09,10.39,9.09c3.61,0,6.06-2.17,6.06-5.34c0-2.31-1.15-3.32-6.49-5.48
		l-8.52-3.32c-8.52-3.46-13.13-9.53-13.13-17.46c0-11.69,10.1-20.64,23.24-20.64c10.39,0,17.46,4.62,23.09,14.87l-14.72,7.07
		c-2.89-4.33-5.05-5.77-8.52-5.77c-3.32,0-5.34,1.59-5.34,4.19c0,2.02,1.15,2.89,6.35,4.91l7.36,2.89
		c10.39,3.9,15.15,9.67,15.15,18.04c0,12.56-10.68,22.37-24.68,22.37c-7.22,0-14-2.74-18.62-7.22c-3.03-3.18-4.91-6.35-7.22-12.41
		L706.27,61.34z"/>
</g>
<g>
	<path class="st0" d="M18.47,20.5v3.61c5.77-4.33,10.25-5.92,16.6-5.92c18.19,0,32.91,15.3,32.91,34.35
		c0,18.91-14.58,34.21-32.91,34.21c-6.35,0-10.83-1.59-16.6-5.92v37.38H0V20.5H18.47z M18.33,52.54C18.33,63.07,24.54,70,33.92,70
		c9.09,0,15.44-7.22,15.44-17.75c0-10.25-6.5-17.46-15.73-17.46C24.54,34.78,18.33,41.86,18.33,52.54z"/>
	<path class="st0" d="M96.71,23.53c4.91-4.04,8.52-5.34,14-5.34c6.35,0,11.11,2.02,16.6,7.07c5.92-5.05,11.26-7.07,18.62-7.07
		c10.54,0,19.2,4.76,23.96,13.28c2.89,4.91,3.9,10.1,3.9,18.76v34.21H155.3v-33.2c0-12.27-2.31-16.45-9.24-16.45
		c-3.75,0-7.22,1.88-8.66,4.47c-1.44,2.74-2.02,6.35-2.02,13.28v31.9h-18.47v-33.2c0-12.27-2.45-16.45-9.38-16.45
		c-3.75,0-7.22,1.88-8.66,4.47c-1.44,2.74-2.02,6.21-2.02,13.28v31.9H78.38V20.5h18.33V23.53z"/>
</g>
<polygon class="st0" points="187.69,63.49 193.36,44.41 248.93,44.41 243.25,63.49 "/>
</svg>
